<svg width="639" height="203" viewBox="0 0 639 203" fill="none" xmlns="http://www.w3.org/2000/svg">
<path fill-rule="evenodd" clip-rule="evenodd" d="M139.282 164.993C139.119 163.551 139.038 162.089 139.038 160.62C139.038 145.111 139.038 127.796 139.038 118.057C139.038 113.944 140.674 110.001 143.582 107.093C146.49 104.185 150.436 102.549 154.546 102.549C155.659 102.549 156.802 102.549 157.915 102.549C158.772 102.549 159.61 102.619 160.428 102.75C156.616 61.9287 122.219 29.9313 80.4088 29.9313C36.0512 29.9313 0.0368652 65.9454 0.0368652 110.303C0.0368652 137.543 13.6182 161.635 34.3761 176.178L27.1648 189.55C26.1878 191.357 25.9708 193.482 26.564 195.451C27.1533 197.425 28.4986 199.076 30.3092 200.054C31.4336 200.662 32.6006 201.29 33.7211 201.895C35.5317 202.872 37.6561 203.089 39.6257 202.5C41.5952 201.911 43.2508 200.561 44.2278 198.751L51.4819 185.301C60.4612 188.771 70.2159 190.675 80.4088 190.675C103.648 190.675 124.596 180.788 139.282 164.993ZM633.593 126.571C635.745 123.369 635.954 119.24 634.14 115.836C632.325 112.431 628.782 110.303 624.924 110.303C610.854 110.303 592.648 110.303 582.474 110.303C578.194 110.303 574.72 113.777 574.72 118.057C574.72 119.17 574.72 120.314 574.72 121.426C574.72 123.481 575.538 125.455 576.992 126.909C578.446 128.362 580.419 129.18 582.474 129.18C589.786 129.18 600.278 129.18 604.775 129.18C605.205 129.18 605.601 129.417 605.803 129.797C606.004 130.173 605.981 130.634 605.741 130.991C601.336 137.547 585.925 160.476 575.177 176.465C573.026 179.668 572.816 183.797 574.627 187.205C576.441 190.609 579.989 192.737 583.847 192.737C599.328 192.737 620.113 192.737 631.209 192.737C635.493 192.737 638.963 189.264 638.963 184.983C638.963 183.871 638.963 182.727 638.963 181.614C638.963 177.33 635.493 173.86 631.209 173.86C622.594 173.86 609.21 173.86 603.996 173.86C603.565 173.86 603.17 173.623 602.968 173.243C602.767 172.863 602.79 172.406 603.03 172.049C607.435 165.493 622.846 142.56 633.593 126.571ZM306.287 110.303C304.228 110.303 302.259 111.121 300.805 112.575C299.347 114.029 298.533 116.002 298.533 118.057C298.533 133.783 298.533 169.258 298.533 184.983C298.533 187.038 299.347 189.012 300.805 190.465C302.259 191.919 304.228 192.737 306.287 192.737C316.635 192.737 334.861 192.737 345.209 192.737C349.493 192.737 352.963 189.264 352.963 184.983C352.963 183.871 352.963 182.727 352.963 181.614C352.963 179.559 352.149 177.586 350.691 176.132C349.237 174.678 347.267 173.86 345.209 173.86C336.373 173.86 322.625 173.86 318.57 173.86C317.93 173.86 317.406 173.34 317.406 172.697C317.406 166.113 317.406 133.267 317.406 118.057C317.406 113.777 313.936 110.303 309.652 110.303C308.543 110.303 307.4 110.303 306.287 110.303ZM178.913 173.86C175.401 173.86 172.032 172.464 169.546 169.979C167.065 167.498 165.669 164.129 165.669 160.616C165.669 147.744 165.669 128.638 165.669 118.057C165.669 113.777 162.195 110.303 157.915 110.303C156.802 110.303 155.659 110.303 154.546 110.303C152.491 110.303 150.518 111.121 149.064 112.575C147.61 114.029 146.792 116.002 146.792 118.057C146.792 127.796 146.792 145.111 146.792 160.62C146.792 169.138 150.176 177.307 156.201 183.328C162.223 189.353 170.392 192.737 178.91 192.737H178.921C187.439 192.737 195.608 189.353 201.629 183.328C207.654 177.307 211.039 169.138 211.039 160.62C211.039 145.111 211.039 127.796 211.039 118.057C211.039 116.002 210.221 114.029 208.767 112.575C207.313 111.121 205.34 110.303 203.285 110.303C202.172 110.303 201.028 110.303 199.916 110.303C195.631 110.303 192.161 113.777 192.161 118.057C192.161 128.638 192.161 147.744 192.161 160.616C192.161 164.129 190.766 167.498 188.281 169.979C185.799 172.464 182.426 173.86 178.913 173.86ZM239.675 173.767C239.198 173.767 238.772 174.058 238.593 174.5C237.764 176.57 235.348 182.607 233.596 186.98C232.417 189.923 229.567 191.853 226.396 191.853C225.687 191.853 224.934 191.853 224.163 191.853C221.596 191.853 219.196 190.582 217.754 188.461C216.308 186.34 216.009 183.642 216.948 181.254C223.643 164.284 236.604 131.414 242.443 116.607C244.238 112.048 248.643 109.051 253.543 109.051H253.551C258.452 109.051 262.852 112.048 264.651 116.607C270.49 131.414 283.451 164.284 290.147 181.254C291.085 183.642 290.786 186.34 289.34 188.461C287.898 190.582 285.498 191.853 282.931 191.853C282.16 191.853 281.408 191.853 280.698 191.853C277.527 191.853 274.677 189.923 273.499 186.98C271.746 182.607 269.331 176.57 268.501 174.5C268.323 174.058 267.896 173.767 267.419 173.767C263.255 173.767 243.835 173.767 239.675 173.767ZM514.959 173.767C514.959 173.767 511.814 181.626 509.667 186.98C508.492 189.923 505.638 191.853 502.471 191.853C501.757 191.853 501.005 191.853 500.234 191.853C497.667 191.853 495.267 190.582 493.825 188.461C492.379 186.34 492.08 183.642 493.022 181.254C499.714 164.284 512.675 131.414 518.514 116.607C520.313 112.048 524.714 109.051 529.618 109.051C534.519 109.051 538.927 112.048 540.726 116.607C546.565 131.414 559.526 164.284 566.218 181.254C567.16 183.642 566.857 186.34 565.415 188.461C563.969 190.582 561.569 191.853 559.002 191.853C558.235 191.853 557.482 191.853 556.769 191.853C553.598 191.853 550.748 189.923 549.569 186.98C547.425 181.626 544.281 173.767 544.281 173.767H514.959ZM381.859 118.057C381.859 113.777 378.385 110.303 374.105 110.303C372.992 110.303 371.848 110.303 370.736 110.303C366.455 110.303 362.981 113.777 362.981 118.057V184.099C362.981 188.383 366.455 191.853 370.736 191.853C371.848 191.853 372.992 191.853 374.105 191.853C378.385 191.853 381.859 188.383 381.859 184.099C381.859 168.529 381.859 133.627 381.859 118.057ZM389.613 156.525C389.613 156.091 389.857 155.692 390.245 155.494C390.629 155.296 391.094 155.328 391.451 155.58C400.387 161.818 411.251 165.474 422.964 165.474C445.66 165.474 465.173 151.737 473.641 132.127C473.792 131.77 473.753 131.359 473.536 131.038C473.323 130.716 472.958 130.522 472.571 130.522C463.064 130.518 417.687 130.518 417.687 130.518V141.886C417.687 143.94 416.869 145.914 415.415 147.368C413.961 148.822 411.988 149.64 409.933 149.64C408.258 149.64 406.482 149.64 404.807 149.64C402.748 149.64 400.779 148.822 399.321 147.368C397.867 145.914 397.053 143.94 397.053 141.886C397.053 141.886 397.053 127.409 397.053 118.057C397.053 113.777 400.523 110.303 404.807 110.303C427.476 110.303 492.631 110.303 502.164 110.303C502.475 110.303 502.773 110.427 502.994 110.648C503.211 110.869 503.335 111.168 503.332 111.478C502.696 155.297 466.926 190.675 422.964 190.675C411.336 190.675 400.286 188.201 390.299 183.75C389.88 183.564 389.613 183.149 389.613 182.688C389.613 178.985 389.613 162.605 389.613 156.525ZM63.5862 162.857C68.8939 164.555 74.5427 165.474 80.4088 165.474C110.859 165.474 135.579 140.753 135.579 110.303C135.579 79.8524 110.859 55.1323 80.4088 55.1323C49.9582 55.1323 25.2378 79.8524 25.2378 110.303C25.2378 127.951 33.5426 143.677 46.4571 153.781L52.6218 142.351C53.5949 140.54 55.2503 139.191 57.2237 138.602C59.1932 138.012 61.3141 138.23 63.1247 139.207C64.2491 139.811 65.4161 140.439 66.5366 141.044C68.3472 142.021 69.6963 143.677 70.2856 145.646C70.8749 147.616 70.6578 149.741 69.6808 151.551L63.5862 162.857ZM520.771 156.653C520.569 157.134 520.619 157.681 520.906 158.115C521.193 158.549 521.678 158.809 522.197 158.809C525.954 158.809 533.286 158.809 537.039 158.809C537.558 158.809 538.047 158.549 538.334 158.115C538.62 157.681 538.671 157.134 538.465 156.653C537.221 153.715 534.918 148.279 532.976 143.692C532.406 142.343 531.083 141.467 529.618 141.467C528.156 141.467 526.834 142.343 526.264 143.692C524.318 148.279 522.019 153.715 520.771 156.653ZM244.7 156.653C244.498 157.134 244.548 157.681 244.835 158.115C245.122 158.549 245.607 158.809 246.126 158.809C249.883 158.809 257.211 158.809 260.968 158.809C261.487 158.809 261.972 158.549 262.259 158.115C262.546 157.681 262.596 157.134 262.395 156.653C261.15 153.715 258.847 148.279 256.901 143.692C256.331 142.343 255.009 141.467 253.547 141.467C252.082 141.467 250.763 142.343 250.189 143.692C248.247 148.279 245.944 153.715 244.7 156.653ZM355.227 150.83C355.231 151.175 354.999 151.485 354.661 151.578C354.328 151.671 353.971 151.532 353.789 151.233C346.678 139.241 342.592 125.245 342.592 110.303C342.592 65.9454 378.602 29.9313 422.964 29.9313C458.485 29.9313 488.657 53.0309 499.268 85.0168C499.385 85.3696 499.323 85.7572 499.102 86.0596C498.885 86.3582 498.536 86.5365 498.163 86.5365C493.038 86.5403 477.084 86.5405 473.486 86.5405C473.04 86.5366 472.637 86.2845 472.443 85.889C463.425 67.6707 444.648 55.1323 422.964 55.1323C406.482 55.1323 391.683 62.3746 381.572 73.843C379.354 72.6256 376.811 71.9317 374.105 71.9317H370.736C362.171 71.9317 355.227 78.8755 355.227 87.44V91.2278C355.227 96.9581 358.337 101.964 362.958 104.643C358.337 107.326 355.227 112.327 355.227 118.057C355.227 118.057 355.227 142.51 355.227 150.83ZM381.859 87.44C381.859 83.1558 378.385 79.6858 374.105 79.6858C372.992 79.6858 371.848 79.6858 370.736 79.6858C366.455 79.6858 362.981 83.1558 362.981 87.44C362.981 88.6884 362.981 89.9794 362.981 91.2278C362.981 95.512 366.455 98.982 370.736 98.982C371.848 98.982 372.992 98.982 374.105 98.982C378.385 98.982 381.859 95.512 381.859 91.2278C381.859 89.9794 381.859 88.6884 381.859 87.44ZM161.54 43.3151L161.308 46.2345L163.06 48.58C168.193 55.4386 172.493 62.9523 175.808 70.974C175.808 70.974 178.413 77.2819 180.794 83.0432C181.348 84.3808 182.694 85.2145 184.14 85.1176C185.586 85.0207 186.807 84.0087 187.172 82.6052C188.75 76.5802 190.475 69.9737 190.475 69.9737C192.026 64.0418 193.243 56.9312 193.243 49.2973C193.243 28.4657 184.097 11.5618 184.097 11.5618C184.097 11.5618 180.201 4.32335 178.293 0.78746C178.092 0.407507 177.7 0.174805 177.27 0.174805C176.843 0.174805 176.448 0.407507 176.246 0.78746C174.342 4.32335 170.442 11.5618 170.442 11.5618C170.442 11.5618 162.982 25.3216 161.54 43.3151Z" fill="#4C4E93"/>
</svg>
